<?xml version="1.0" encoding="utf-8"?>
<!-- Generator: Adobe Illustrator 21.1.0, SVG Export Plug-In . SVG Version: 6.00 Build 0)  -->
<svg version="1.1"
	 id="svg3476" inkscape:version="0.91 r13725" sodipodi:docname="CSS3.svg" xmlns:cc="http://creativecommons.org/ns#" xmlns:dc="http://purl.org/dc/elements/1.1/" xmlns:inkscape="http://www.inkscape.org/namespaces/inkscape" xmlns:rdf="http://www.w3.org/1999/02/22-rdf-syntax-ns#" xmlns:sodipodi="http://sodipodi.sourceforge.net/DTD/sodipodi-0.dtd" xmlns:svg="http://www.w3.org/2000/svg"
	 xmlns="http://www.w3.org/2000/svg" xmlns:xlink="http://www.w3.org/1999/xlink" x="0px" y="0px" viewBox="0 0 512 512"
	 style="enable-background:new 0 0 512 512;" xml:space="preserve">
<style type="text/css">
	.st0{fill:#BAB4E6;}
	.st1{fill:#062331;}
</style>
<g id="layer1" inkscape:groupmode="layer" inkscape:label="Calque 1">
	<g id="g3013">
		<g>
			<polygon class="st0" points="74.6,100.6 107.6,470.9 255.8,512 404.3,470.8 437.4,100.6 			"/>
			<polygon class="st0" points="215,46 183,46 183,23 215,23 215,0 160,0 160,69 215,69 			"/>
			<polygon class="st0" points="281,24 249,24 249,20 281,20 281,0 226,0 226,45 258,45 258,49 226,49 226,70 281,70 			"/>
			<polygon class="st0" points="347,24 315,24 315,20 347,20 347,0 292,0 292,45 324,45 324,49 292,49 292,70 347,70 			"/>
		</g>
		<polygon class="st1" points="256,176.3 255.8,176.3 142.1,176.3 146.3,221.7 255.8,221.7 256,221.7 319.8,221.7 315.7,268.2 
			255.8,268.2 255.8,313.6 311.8,313.6 306.5,372.5 255.8,386.2 255.8,386.2 255.8,386.2 205.2,372.5 202,336.3 177.4,336.3 
			156.4,336.3 162.8,407.6 255.8,433.5 256,433.4 256,433.4 348.9,407.6 349.6,400 360.3,280.4 361.4,268.2 369.6,176.3 		"/>
	</g>
</g>
</svg>
