<?xml version="1.0" encoding="utf-8"?>
<!-- Generator: Adobe Illustrator 21.1.0, SVG Export Plug-In . SVG Version: 6.00 Build 0)  -->
<svg version="1.1" id="Слой_1" xmlns="http://www.w3.org/2000/svg" xmlns:xlink="http://www.w3.org/1999/xlink" x="0px" y="0px"
	 viewBox="0 0 48 48" style="enable-background:new 0 0 48 48;" xml:space="preserve">
<style type="text/css">
	.st0{fill:none;}
	.st1{clip-path:url(#SVGID_2_);fill:#BAB4E6;}
</style>
<path class="st0" d="M44.5,20H24v8.5h11.8C34.7,33.9,30.1,37,24,37c-7.2,0-13-5.8-13-13s5.8-13,13-13c3.1,0,5.9,1.1,8.1,2.9l6.4-6.4
	C34.6,4.1,29.6,2,24,2C11.8,2,2,11.8,2,24s9.8,22,22,22c11,0,21-8,21-22C45,22.7,44.8,21.3,44.5,20z"/>
<g>
	<defs>
		<path id="SVGID_1_" d="M44.5,20H24v8.5h11.8C34.7,33.9,30.1,37,24,37c-7.2,0-13-5.8-13-13s5.8-13,13-13c3.1,0,5.9,1.1,8.1,2.9
			l6.4-6.4C34.6,4.1,29.6,2,24,2C11.8,2,2,11.8,2,24s9.8,22,22,22c11,0,21-8,21-22C45,22.7,44.8,21.3,44.5,20z"/>
	</defs>
	<clipPath id="SVGID_2_">
		<use xlink:href="#SVGID_1_"  style="overflow:visible;"/>
	</clipPath>
	<polygon class="st1" points="0,0 0,11 0,37 0,48 48,48 48,14 48,11 48,0 	"/>
</g>
</svg>
