<?xml version="1.0" encoding="utf-8"?>
<!-- Generator: Adobe Illustrator 21.1.0, SVG Export Plug-In . SVG Version: 6.00 Build 0)  -->
<svg version="1.1" id="Слой_1" xmlns="http://www.w3.org/2000/svg" xmlns:xlink="http://www.w3.org/1999/xlink" x="0px" y="0px"
	 viewBox="0 0 512 512" style="enable-background:new 0 0 512 512;" xml:space="preserve">
<style type="text/css">
	.st0{fill:#BAB4E6;}
	.st1{fill:#062331;}
</style>
<title>HTML5 Logo</title>
<path class="st0" d="M108.4,0h23v22.8h21.2V0h23v69h-23V46h-21v23h-23.2 M206,23h-20.3V0h63.7v23H229v46h-23 M259.5,0h24.1
	l14.8,24.3L313.2,0h24.1v69h-23V34.8l-16.1,24.8l-16.1-24.8V69h-22.6 M348.7,0h23v46.2h32.6V69h-55.6"/>
<polygon class="st0" points="74.6,100.6 107.6,471 255.7,512 404.4,470.8 437.4,100.6 "/>
<polygon class="st1" points="256,221.7 365.4,221.7 369.6,176.3 256,176.3 255.8,176.3 142,176.3 154.4,313.5 255.8,313.5 
	255.8,313.6 311.8,313.6 306.5,372.6 255.9,386.2 205.2,372.6 202,336.3 156.4,336.3 162.8,407.6 256,433.6 256,433.3 348.8,407.6 
	361.3,268.2 256,268.2 255.8,268.2 196,268.2 191.8,221.7 255.8,221.7 "/>
</svg>
