<svg xmlns="http://www.w3.org/2000/svg">
  <symbol id="mail" viewBox="0 0 72 48">
    <path
      d="M2 0a2.0002 2.0002 0 0 0-2 2v44a2.0002 2.0002 0 0 0 2 2h68a2.0002 2.0002 0 0 0 2-2V2a2.0002 2.0002 0 0 0-2-2H2Zm5.8203 4h56.3262L35.8887 25.8672 7.8203 4ZM68 6.0781V44H4V6.0938l30.6543 23.8847a2.0002 2.0002 0 0 0 2.4531 0L68 6.0781Z"
      fill="currentColor" />
  </symbol>

  <symbol id="github" viewBox="0 0 438.549 438.549">
    <path fill="currentcolor"
      d="M409.132 114.573c-19.608-33.596-46.205-60.194-79.798-79.8-33.598-19.607-70.277-29.408-110.063-29.408-39.781 0-76.472 9.804-110.063 29.408-33.596 19.605-60.192 46.204-79.8 79.8C9.803 148.168 0 184.854 0 224.63c0 47.78 13.94 90.745 41.827 128.906 27.884 38.164 63.906 64.572 108.063 79.227 5.14.954 8.945.283 11.419-1.996 2.475-2.282 3.711-5.14 3.711-8.562 0-.571-.049-5.708-.144-15.417-.098-9.709-.144-18.179-.144-25.406l-6.567 1.136c-4.187.767-9.469 1.092-15.846 1-6.374-.089-12.991-.757-19.842-1.999-6.854-1.231-13.229-4.086-19.13-8.559-5.898-4.473-10.085-10.328-12.56-17.556l-2.855-6.57c-1.903-4.374-4.899-9.233-8.992-14.559-4.093-5.331-8.232-8.945-12.419-10.848l-1.999-1.431c-1.332-.951-2.568-2.098-3.711-3.429-1.142-1.331-1.997-2.663-2.568-3.997-.572-1.335-.098-2.43 1.427-3.289 1.525-.859 4.281-1.276 8.28-1.276l5.708.853c3.807.763 8.516 3.042 14.133 6.851 5.614 3.806 10.229 8.754 13.846 14.842 4.38 7.806 9.657 13.754 15.846 17.847 6.184 4.093 12.419 6.136 18.699 6.136 6.28 0 11.704-.476 16.274-1.423 4.565-.952 8.848-2.383 12.847-4.285 1.713-12.758 6.377-22.559 13.988-29.41-10.848-1.14-20.601-2.857-29.264-5.14-8.658-2.286-17.605-5.996-26.835-11.14-9.235-5.137-16.896-11.516-22.985-19.126-6.09-7.614-11.088-17.61-14.987-29.979-3.901-12.374-5.852-26.648-5.852-42.826 0-23.035 7.52-42.637 22.557-58.817-7.044-17.318-6.379-36.732 1.997-58.24 5.52-1.715 13.706-.428 24.554 3.853 10.85 4.283 18.794 7.952 23.84 10.994 5.046 3.041 9.089 5.618 12.135 7.708 17.705-4.947 35.976-7.421 54.818-7.421s37.117 2.474 54.823 7.421l10.849-6.849c7.419-4.57 16.18-8.758 26.262-12.565 10.088-3.805 17.802-4.853 23.134-3.138 8.562 21.509 9.325 40.922 2.279 58.24 15.036 16.18 22.559 35.787 22.559 58.817 0 16.178-1.958 30.497-5.853 42.966-3.9 12.471-8.941 22.457-15.125 29.979-6.191 7.521-13.901 13.85-23.131 18.986-9.232 5.14-18.182 8.85-26.84 11.136-8.662 2.286-18.415 4.004-29.263 5.146 9.894 8.562 14.842 22.077 14.842 40.539v60.237c0 3.422 1.19 6.279 3.572 8.562 2.379 2.279 6.136 2.95 11.276 1.995 44.163-14.653 80.185-41.062 108.068-79.226 27.88-38.161 41.825-81.126 41.825-128.906-.01-39.771-9.818-76.454-29.414-110.049z" />
  </symbol>

  <symbol id="telegram" viewBox="0 0 300 300">
    <path fill="currentcolor"
      d="m5.299 144.645 69.126 25.8 26.756 86.047c1.712 5.511 8.451 7.548 12.924 3.891l38.532-31.412c4.039-3.291 9.792-3.455 14.013-.391l69.498 50.457c4.785 3.478 11.564.856 12.764-4.926L299.823 29.22c1.31-6.316-4.896-11.585-10.91-9.259L5.218 129.402c-7.001 2.7-6.94 12.612.081 15.243zm91.57 12.066 135.098-83.207c2.428-1.491 4.926 1.792 2.841 3.726L123.313 180.87c-3.919 3.648-6.447 8.53-7.163 13.829l-3.798 28.146c-.503 3.758-5.782 4.131-6.819.494l-14.607-51.325c-1.673-5.854.765-12.107 5.943-15.303z" />
  </symbol>

  <symbol id="linkedin" viewBox="0 0 478.165 478.165">
    <path
      fill="currentcolor"
      d="M478.165 290.794v176.742H375.638V302.549c0-41.481-14.783-69.673-51.881-69.673-28.371 0-45.107 19.087-52.578 37.456-2.69 6.615-3.507 15.879-3.507 25.024v172.159H165.246s1.375-279.328 0-308.257h102.447v43.692c-.139.359-.438.657-.578 1.056h.578v-1.056c13.687-20.999 37.934-50.925 92.385-50.925 67.581.001 118.087 44.052 118.087 138.769zM57.997 10.629C22.952 10.629 0 33.621 0 63.945c0 29.507 22.275 53.276 56.682 53.276h.618c35.822 0 58.017-23.769 58.017-53.276-.697-30.324-22.194-53.316-57.32-53.316zM6.117 467.535h102.467V159.239H6.117v308.296z" />
  </symbol>

  <symbol id="location" viewBox="0 0 24 24">
    <path
      fill="currentcolor"
      d="M12 0C7.038 0 3 4.066 3 9.065c0 7.103 8.154 14.437 8.501 14.745.143.127.321.19.499.19s.356-.063.499-.189C12.846 23.502 21 16.168 21 9.065 21 4.066 16.962 0 12 0zm0 14c-2.757 0-5-2.243-5-5s2.243-5 5-5 5 2.243 5 5-2.243 5-5 5z" />
  </symbol>
</svg>