<?xml version="1.0" encoding="UTF-8" standalone="no"?>
<svg
     xmlns:dc="http://purl.org/dc/elements/1.1/"
     xmlns:cc="http://creativecommons.org/ns#"
     xmlns:rdf="http://www.w3.org/1999/02/22-rdf-syntax-ns#"
     xmlns:svg="http://www.w3.org/2000/svg"
     xmlns="http://www.w3.org/2000/svg"
     version="1.1"
     id="svg9093"
     viewBox="0 0 55.999998 55.999997"
     height="15.804443mm"
     width="15.804443mm">
    <defs
         id="defs9095" />
    <metadata
         id="metadata9098">
        <rdf:RDF>
            <cc:Work
                 rdf:about="">
                <dc:format>image/svg+xml</dc:format>
                <dc:type
                     rdf:resource="http://purl.org/dc/dcmitype/StillImage" />
                <dc:title></dc:title>
            </cc:Work>
        </rdf:RDF>
    </metadata>
    <g
         transform="translate(-297,-72.362207)"
         id="layer1">
        <path
             id="path9753"
             d="m 301.00001,76.364704 0,47.995006 47.995,0 0,-47.995006 -47.995,0 z m 25.3871,40.896806 c -0.7085,1.4393 -2.0608,2.3851 -3.6277,2.8417 -2.4078,0.5529 -4.7108,0.2376 -6.4241,-0.7907 -1.1464,-0.7034 -2.0418,-1.7861 -2.6495,-3.0336 l 3.6552,-2.2385 c 0.032,0.013 0.1278,0.1869 0.2561,0.4112 0.466,0.781 0.868,1.334 1.6583,1.722 0.7764,0.265 2.4807,0.4342 3.1389,-0.9317 0.402,-0.6951 0.2741,-2.929 0.2741,-5.4004 0,-3.8838 0.017,-7.7515 0.017,-11.591105 l 4.496,0 c 0,4.223605 0.022,8.223605 0,12.345105 0.011,2.5265 0.2287,4.7788 -0.7949,6.666 z m 18.6504,-1.2702 c -1.5627,5.3455 -10.2756,5.5191 -13.7572,1.9873 -0.7357,-0.8312 -1.1969,-1.2654 -1.6356,-2.2251 1.8502,-1.0641 1.8502,-1.0641 3.6505,-2.1059 0.978,1.5032 1.8823,2.3299 3.5091,2.6681 2.207,0.2695 4.4274,-0.4888 3.9294,-2.8328 -0.5118,-1.9145 -4.5191,-2.3802 -7.2465,-4.4275 -2.7687,-1.8595 -3.4175,-6.3779 -1.1423,-8.9597 0.7583,-0.954809 2.0516,-1.667505 3.4085,-2.010005 l 1.4161,-0.1831 c 2.7188,-0.055 4.4181,0.662996 5.6657,2.055996 0.347,0.351709 0.6304,0.731209 1.1603,1.553209 -1.4483,0.923 -1.4437,0.9142 -3.5183,2.2573 -0.4431,-0.9546 -1.1783,-1.5536 -1.9554,-1.8139 -1.2065,-0.3656 -2.7276,0.032 -3.0433,1.3066 -0.1095,0.3928 -0.087,0.7584 0.088,1.4073 0.4888,1.1146 2.1292,1.5992 3.6004,2.2753 4.2355,1.7179 5.6658,3.5598 6.0175,5.7521 0.3385,1.8875 -0.081,3.1121 -0.1459,3.2948 z"
             style="fill:#bab4e6;fill-opacity:1" />
    </g>
</svg>
