<?xml version="1.0" encoding="UTF-8" standalone="no"?>
<svg
     xmlns:dc="http://purl.org/dc/elements/1.1/"
     xmlns:cc="http://creativecommons.org/ns#"
     xmlns:rdf="http://www.w3.org/1999/02/22-rdf-syntax-ns#"
     xmlns:svg="http://www.w3.org/2000/svg"
     xmlns="http://www.w3.org/2000/svg"
     version="1.1"
     id="svg9093"
     viewBox="0 0 64 72"
     height="20.32mm"
     width="18.06222mm">
    <defs
         id="defs9095" />
    <metadata
         id="metadata9098">
        <rdf:RDF>
            <cc:Work
                 rdf:about="">
                <dc:format>image/svg+xml</dc:format>
                <dc:type
                     rdf:resource="http://purl.org/dc/dcmitype/StillImage" />
                <dc:title></dc:title>
            </cc:Work>
        </rdf:RDF>
    </metadata>
    <g
         transform="translate(-169,-128.3622)"
         id="layer1">
        <path
             id="path9743"
             d="m 200.40143,131.63041 c -1.0195,0.01 -2.0468,0.14689 -3.0673,0.4142 -3.9959,1.04519 -6.7435,4.42659 -6.6978,8.6105 0.039,3.5691 0.2159,7.1359 0.4766,10.6828 0.1299,1.7554 -0.1233,3.0546 -1.1605,4.2949 -1.3294,1.5891 -2.4969,3.2733 -3.6109,4.9428 -0.6805,1.02079 -1.289,2.1407 -1.7282,3.3415 -1.0727,2.935 -2.0223,5.7439 -3.5947,8.18449 -0.7317,1.13591 -0.8212,2.60771 -0.4394,3.9597 a 0.79409821,0.79409821 0 0 1 -0.091,0.63601 c -0.4944,0.79089 -0.9598,1.47199 -1.5687,2.0156 -0.6088,0.54359 -1.3733,0.9183 -2.2926,1.05469 -0.563,0.084 -0.9987,0.15961 -1.4809,0.33981 -0.4347,0.1624 -0.9897,0.5168 -1.3019,0.96819 -0.727,1.05131 -0.5352,1.7384 -0.5006,2.91091 0.05,1.67399 0.029,3.33819 -0.1369,4.95329 -0.1058,1.0357 -0.2384,1.7959 0.3499,2.7724 0.5614,0.93171 1.4794,1.2526 2.4804,1.5016 4.1008,1.0185 8.1177,1.8693 11.8433,3.44571 2.0137,0.85179 4.5701,0.4597 6.2121,-1.21711 1.0831,-1.1063 2.4435,-1.55279 4.0386,-1.5552 3.1386,0 6.3174,0.1469 9.5342,0.1862 a 0.79409821,0.79409821 0 0 1 0.7002,0.4409 c 0.5866,1.18261 1.7769,2.3228 3.2938,2.4909 2.3475,0.2583 4.956,-0.17559 6.8988,-2.1318 1.8887,-1.9033 4.0471,-3.39139 6.5265,-4.4259 0.9614,-0.4016 1.7739,-0.981 2.4833,-1.5926 0.708,-0.6098 1.3614,-1.3047 1.3155,-2.4253 -0.047,-1.14539 -0.6878,-1.70789 -1.4093,-2.303 -0.9388,-0.7729 -1.8465,-1.4933 -2.6443,-2.2555 -0.3506,-0.33479 -0.6294,-0.635 -0.8149,-1.02639 -0.1853,-0.39121 -0.2232,-0.83031 -0.1847,-1.2439 0.053,-0.5679 0.051,-1.1827 -0.3009,-1.8651 0.064,0.1252 -0.025,0.044 -0.2398,-0.2473 a 0.79409821,0.79409821 0 0 1 -0.1267,-0.6808 c 0.034,-0.1207 0.078,-0.2159 0.091,-0.2443 0.139,-0.6852 0.1196,-1.2139 0.1326,-1.6894 0.1445,-5.4696 -1.8497,-10.25871 -4.6761,-14.5784 -1.2737,-1.9451 -2.6,-3.8512 -3.9509,-5.7294 -1.8958,-2.6354 -2.5875,-5.5813 -2.6234,-8.9263 -0.019,-1.7263 -0.2227,-3.4648 -0.5868,-5.144 -0.7383,-3.3963 -2.7621,-6.3515 -6.166,-7.8212 -1.2844,-0.55421 -2.6158,-0.89561 -3.9656,-1.0025 a 0.79409821,0.79409821 0 0 1 -0.078,-0.011 c -0.3021,-0.022 -0.6048,-0.033 -0.9087,-0.032 a 0.79409821,0.79409821 0 0 1 -0.03,0 z m 0.01,1.4167 c 1.4973,-0.01 2.9704,0.29949 4.4124,0.9222 3.0113,1.2996 4.6715,3.72399 5.3452,6.8229 0.3442,1.5879 0.5374,3.23659 0.5558,4.861 0.038,3.54169 0.7905,6.81999 2.8899,9.7382 1.3422,1.8661 2.656,3.7544 3.915,5.6773 2.7341,4.17849 4.5808,8.6578 4.4453,13.768 -0.013,0.48589 -0.01,0.982 -0.1043,1.4539 -0.087,0.42329 -0.3014,0.8217 -0.5303,1.41379 0.9733,0.26991 1.16,0.96281 1.0845,1.76981 -0.1314,1.4027 0.4707,2.5105 1.4301,3.4264 0.8615,0.8229 1.8022,1.5641 2.7232,2.3224 1.1535,0.9513 1.2146,1.5792 0.07,2.5653 -0.6285,0.54179 -1.3446,1.041 -2.105,1.35859 -2.6571,1.1087 -4.9751,2.70871 -6.9853,4.73431 -1.6301,1.6413 -3.59,1.9607 -5.7413,1.7236 -1.1211,-0.1241 -1.8498,-0.83881 -2.2808,-1.8099 -0.3514,-0.7933 -0.8533,-1.11791 -1.7266,-1.1278 -3.2261,-0.036 -6.4511,-0.1892 -9.6757,-0.1892 -1.8999,0 -3.6582,0.5581 -5.05,1.9799 -1.3336,1.3616 -2.9953,1.6046 -4.651,0.9043 -3.8885,-1.6454 -7.9878,-2.5076 -12.0533,-3.5173 -1.7583,-0.4372 -1.9516,-0.9321 -1.7653,-2.756 0.1749,-1.7013 0.1941,-3.4289 0.143,-5.141 -0.062,-2.1031 0.038,-2.4751 2.0781,-2.7783 2.5935,-0.3848 3.9571,-2.1488 5.1649,-4.1533 0.1404,-0.2325 0.069,-0.6765 -0.046,-0.9654 -0.4459,-1.1149 -0.3748,-2.2057 0.2532,-3.1805 1.6946,-2.6305 2.6712,-5.5591 3.7332,-8.46461 0.39,-1.0661 0.9485,-2.09739 1.5791,-3.04339 1.1041,-1.65471 2.2443,-3.29761 3.5187,-4.8208 1.3253,-1.5843 1.6331,-3.30901 1.4853,-5.3064 -0.2591,-3.5243 -0.4341,-7.0609 -0.4723,-10.59341 -0.04,-3.6703 2.1009,-6.302 5.6416,-7.22809 0.9137,-0.23911 1.8203,-0.3603 2.7187,-0.3665 z m 2.9168,8.37819 c -0.1402,0 -0.283,0.017 -0.429,0.045 -1.3884,0.2627 -2.3016,1.1295 -2.6905,2.464 -0.5382,1.84341 0.1106,3.12651 1.8786,3.65131 -0.04,-0.7132 -0.1321,-1.2826 -0.088,-1.84131 0.071,-0.8968 0.602,-1.4873 1.2305,-1.4957 0.7009,-0.01 1.3845,0.7606 1.4555,1.62981 0.055,0.6619 -0.108,1.2188 -0.6898,1.6148 -0.2617,0.178 -0.4903,0.40439 -0.8536,0.7091 0.431,0.1587 0.6685,0.2532 0.9118,0.3338 1.2991,0.4304 1.5596,0.31139 2.1153,-0.958 0.6772,-1.5484 0.4164,-3.0273 -0.3768,-4.44231 -0.6447,-1.1483 -1.4825,-1.73019 -2.4641,-1.71019 z m -8.1293,0.4425 c -0.5851,-0.017 -1.123,0.292 -1.5315,0.9101 -1.0487,1.5849 -0.589,4.72561 0.9594,6.1109 l 0.9862,-0.7747 c -0.3653,-0.39549 -0.7194,-0.644 -0.8789,-0.98309 -0.2525,-0.5393 -0.5426,-1.15261 -0.4976,-1.7088 0.033,-0.40281 0.5837,-0.7635 0.9028,-1.14261 0.3397,0.29661 0.8272,0.52931 0.9831,0.90281 0.2469,0.5891 0.2709,1.27289 0.3889,1.9157 l 0.3098,0.1923 c 0.3022,-0.3803 0.7342,-0.71711 0.8805,-1.1502 0.4022,-1.1903 -0.3757,-3.18061 -1.4167,-3.8867 -0.3664,-0.248 -0.735,-0.3757 -1.086,-0.3857 z m 10.7989,10.0973 c -0.432,0.16161 -0.7372,0.22751 -0.9922,0.3784 -1.0246,0.6065 -2.0733,1.186 -3.042,1.87401 -2.2713,1.61259 -4.244,1.5265 -6.3193,-0.34411 -0.5752,-0.5182 -1.1711,-1.0126 -1.7564,-1.51799 l -0.3635,0.18019 c 0,0.65721 -0.034,1.3177 0.01,1.9724 0.075,1.1652 -0.3436,2.0967 -1.0205,3.0479 -0.7039,0.9919 -1.2021,2.1477 -1.6818,3.2774 -0.9287,2.1898 -1.6963,4.4505 -2.6874,6.6099 -1.1114,2.4201 -1.6585,4.9076 -1.6104,7.5663 0.021,1.1082 0.3478,1.9833 1.2036,2.6621 1.0041,0.7958 2.0201,1.5768 3.0227,2.3746 1.0368,0.8255 2.1155,1.6088 3.0822,2.5102 1.2791,1.1913 0.979,2.5692 -0.6227,3.2207 -0.3627,0.1473 -0.7352,0.2726 -1.238,0.4589 1.1292,1.8429 2.5279,3.1458 4.6674,3.407 4.9597,0.6049 9.1058,-1.0634 12.5761,-4.5809 0.625,-0.6337 0.9326,-1.3458 0.9013,-2.2539 -0.044,-1.3247 -0.048,-2.6533 0.01,-3.9776 0.048,-1.1328 0.3051,-1.3815 1.2589,-1.5209 1.3432,-0.1976 1.4943,-0.2535 1.5984,-1.5896 0.1114,-1.4427 0.032,-2.8995 0.041,-4.3515 0.012,-2.8008 -0.7166,-5.386 -2.0871,-7.8359 -0.6834,-1.2211 -1.1259,-2.5768 -1.6759,-3.8718 -1.0842,-2.5484 -2.1664,-5.0966 -3.27,-7.6958 z"
             style="clip-rule:evenodd;opacity:1;fill:#bab4e6;fill-opacity:1;fill-rule:evenodd" />
    </g>
</svg>
