<?xml version="1.0" encoding="UTF-8" standalone="no"?>
<svg xmlns:dc="http://purl.org/dc/elements/1.1/" xmlns:cc="http://creativecommons.org/ns#" xmlns:rdf="http://www.w3.org/1999/02/22-rdf-syntax-ns#" xmlns:svg="http://www.w3.org/2000/svg" xmlns="http://www.w3.org/2000/svg" version="1.1" id="svg4400" viewBox="0 0 71.999999 48.000001" height="13.546667mm" width="20.32mm">
  <defs id="defs4402" />
  <path id="path9080" d="M 2,0 A 2.0002,2.0002 0 0 0 0,2 l 0,44 a 2.0002,2.0002 0 0 0 2,2 l 68,0 a 2.0002,2.0002 0 0 0 2,-2 L 72,2 A 2.0002,2.0002 0 0 0 70,0 L 2,0 Z M 7.8203,4 64.1465,4 35.8887,25.8672 7.8203,4 Z M 68,6.0781 68,44 4,44 4,6.0938 34.6543,29.9785 a 2.0002,2.0002 0 0 0 2.4531,0 L 68,6.0781 Z" style="color:#000000;font-style:normal;font-variant:normal;font-weight:normal;font-stretch:normal;font-size:medium;line-height:normal;font-family:sans-serif;text-indent:0;text-align:start;text-decoration:none;text-decoration-line:none;text-decoration-style:solid;text-decoration-color:#000000;letter-spacing:normal;word-spacing:normal;text-transform:none;direction:ltr;block-progression:tb;writing-mode:lr-tb;baseline-shift:baseline;text-anchor:start;white-space:normal;clip-rule:nonzero;display:inline;overflow:visible;visibility:visible;opacity:1;isolation:auto;mix-blend-mode:normal;color-interpolation:sRGB;color-interpolation-filters:linearRGB;solid-color:#000000;solid-opacity:1;fill:#9386fa;fill-opacity:1;fill-rule:nonzero;stroke:none;stroke-width:4;stroke-linecap:butt;stroke-linejoin:round;stroke-miterlimit:4;stroke-dasharray:none;stroke-dashoffset:0;stroke-opacity:1;color-rendering:auto;image-rendering:auto;shape-rendering:auto;text-rendering:auto;enable-background:accumulate" />
</svg>
