<?xml version="1.0" encoding="UTF-8" standalone="no"?>
<svg
     xmlns:dc="http://purl.org/dc/elements/1.1/"
     xmlns:cc="http://creativecommons.org/ns#"
     xmlns:rdf="http://www.w3.org/1999/02/22-rdf-syntax-ns#"
     xmlns:svg="http://www.w3.org/2000/svg"
     xmlns="http://www.w3.org/2000/svg"
     version="1.1"
     id="svg9093"
     viewBox="0 0 106 55.999997"
     height="15.804443mm"
     width="29.915554mm">
    <defs
         id="defs9095" />
    <metadata
         id="metadata9098">
        <rdf:RDF>
            <cc:Work
                 rdf:about="">
                <dc:format>image/svg+xml</dc:format>
                <dc:type
                     rdf:resource="http://purl.org/dc/dcmitype/StillImage" />
                <dc:title></dc:title>
            </cc:Work>
        </rdf:RDF>
    </metadata>
    <g
         transform="translate(-191,-72.362207)"
         id="layer1">
        <path
             id="path9747"
             d="m 244.02938,77.323204 c -1.1183,10e-5 -2.2429,0.012 -2.9221,0.035 -12.0384,0.3972 -23.0949,3.1357 -31.1276,7.710801 -2.0547,1.1701 -3.9577,2.5094 -5.4903,3.8663 -0.4718,0.4177 -1.531,1.4729 -1.9517,1.943 -2.3626,2.6398 -3.7221,5.5194 -3.9822,8.438696 -0.047,0.5307 -0.046,1.614409 0,2.133309 0.2511,2.7137 1.4538,5.4051 3.5254,7.8877 5.6506,6.772 17.4288,11.8069 31.5363,13.483 2.1631,0.2571 4.9727,0.4752 7.1316,0.5509 1.1624,0.041 5.2625,0.041 6.3624,0 9.9766,-0.3586 19.2621,-2.3082 26.7673,-5.6192 0.9698,-0.4279 2.8584,-1.361 3.6674,-1.8119 4.7595,-2.6522 8.1522,-5.6979 10.126,-9.0922 0.9098,-1.5645 1.4634,-3.1387 1.7266,-4.9046 0.076,-0.5103 0.1074,-2.020709 0.055,-2.620609 -0.5182,-5.860096 -5.3872,-11.355496 -13.7082,-15.469796 -7.7948,-3.853701 -17.8812,-6.127601 -28.8305,-6.499901 -0.657,-0.022 -1.7688,-0.032 -2.8872,-0.032 z m -5.4618,5.418201 2.6839,0 c 2.6659,0 2.6836,-6e-4 2.6665,0.07 -0.012,0.04 -0.2658,1.3576 -0.5705,2.931 -0.3046,1.5732 -0.5865,3.0196 -0.6251,3.2128 -0.038,0.1932 -0.07,0.3656 -0.07,0.3825 0,0.017 1.1585,0.031 2.5726,0.031 3.2363,0 4.2015,0.045 5.3504,0.2513 1.5057,0.2712 2.5309,0.7334 3.2522,1.4667 0.8309,0.8445 1.1636,1.9567 1.0796,3.6215 -0.031,0.5958 -0.079,0.8887 -0.5923,3.5254 -0.2316,1.192096 -0.7394,3.802205 -1.1278,5.800605 l -0.7058,3.6347 -2.7321,0 c -2.5848,0 -2.7304,0 -2.7124,-0.064 0.012,-0.035 0.4036,-2.0364 0.872,-4.4501 0.4685,-2.4136 0.9478,-4.887005 1.0666,-5.496805 0.28,-1.4362 0.3219,-1.7209 0.3212,-2.214 0,-1.1281 -0.3812,-1.6353 -1.4205,-1.897 -0.6078,-0.1531 -0.9515,-0.169 -3.5691,-0.1574 l -2.4479,0.012 -0.2797,1.4382 c -0.1539,0.7915 -0.4632,2.3755 -0.6864,3.5188 -0.2231,1.143396 -0.6626,3.407005 -0.977,5.029205 l -0.6993,3.6149 -0.1289,0.6666 -2.6775,0 c -1.9091,0 -2.6774,-0.012 -2.6774,-0.04 0,-0.038 0.6369,-3.3314 1.2261,-6.3404 0.1647,-0.8405 0.5578,-2.854105 0.872,-4.476205 0.3145,-1.6221 0.6979,-3.5972 0.8526,-4.3887 0.1548,-0.7917 0.5381,-2.7666 0.8523,-4.3888 0.4863,-2.5102 0.8524,-4.3892 0.9966,-5.1165 l 0.035,-0.177 z m -22.6256,6.6267 5.368,0 c 5.3469,4e-4 6.1299,0.015 7.0048,0.1268 2.5012,0.3213 4.3545,1.3508 5.4378,3.0184 0.7019,1.08 1.0226,2.2861 1.025,3.8555 0,1.8616 -0.4371,3.773605 -1.2391,5.365605 -0.8049,1.5974 -2.2333,3.1819 -3.803,4.2226 -0.406,0.2692 -1.2801,0.7206 -1.718,0.8874 -0.9827,0.3744 -2.1823,0.621 -3.6827,0.7562 -0.2892,0.026 -1.5995,0.047 -3.5079,0.057 -1.6759,0.012 -3.049,0.029 -3.049,0.044 0,0.014 -0.1189,0.6416 -0.2644,1.3923 -0.1455,0.7506 -0.4241,2.1943 -0.6207,3.2106 -0.1966,1.0163 -0.3648,1.8799 -0.3738,1.9189 -0.016,0.071 -0.045,0.072 -2.7189,0.072 l -2.7036,0 0.018,-0.09 c 0.012,-0.049 0.1791,-0.9202 0.376,-1.9364 0.4658,-2.4058 0.811,-4.1833 1.3833,-7.1251 0.257,-1.3193 0.642,-3.2943 0.8547,-4.3887 0.5665,-2.915005 1.0723,-5.514105 1.5999,-8.224505 0.2567,-1.3192 0.4994,-2.5722 0.5398,-2.7822 l 0.074,-0.3804 z m 42.4163,0.016 c 0,-0.034 10.7685,-0.016 11.3543,0.02 1.9677,0.1169 3.4963,0.554 4.6904,1.3397 2.1597,1.4212 3.1164,3.8511 2.7342,6.9394 -0.3254,2.628105 -1.1997,4.614205 -2.8282,6.419105 -1.4869,1.648 -3.2439,2.7065 -5.2456,3.1582 -1.4947,0.3375 -2.5775,0.4085 -6.231,0.4087 l -2.6163,0 -0.092,0.4699 c -0.7107,3.6721 -1.1684,6.0274 -1.1824,6.0848 -0.017,0.07 -0.047,0.071 -2.7167,0.071 -1.4845,0 -2.6992,-0.011 -2.6992,-0.013 0,-0.012 0.2003,-1.0466 0.4458,-2.3102 l 0.8327,-4.2861 c 0.2126,-1.0944 0.7643,-3.933 1.2261,-6.3076 1.7554,-9.024805 2.3277,-11.973005 2.3277,-11.994605 z m -37.7653,3.8859 -0.039,0.1902 c -0.021,0.1041 -0.159,0.8136 -0.3061,1.5759 -0.1471,0.7622 -0.3469,1.7844 -0.4436,2.2729 -0.2671,1.350296 -1.2437,6.396605 -1.2437,6.425705 1e-4,0.038 3.6699,0.029 4.2643,-0.012 1.6015,-0.1074 2.8095,-0.4479 3.7264,-1.0534 0.4014,-0.2651 0.9598,-0.8286 1.2458,-1.2567 0.6091,-0.9118 1.0698,-2.253909 1.2698,-3.695905 0.09,-0.6407 0.083,-1.5777 -0.013,-2.0238 -0.2992,-1.3955 -1.21,-2.0546 -3.2303,-2.3321 -0.3431,-0.047 -0.8726,-0.06 -2.826,-0.074 l -2.4041,-0.018 z m 42.4294,0.011 -0.02,0.08 c -0.022,0.092 -0.5563,2.8282 -1.2327,6.316396 -0.2559,1.319209 -0.5359,2.764409 -0.6229,3.212909 -0.087,0.4485 -0.1596,0.828 -0.1596,0.8436 0,0.041 3.6529,0.034 4.2839,-0.012 2.9745,-0.2006 4.601,-1.1975 5.5251,-3.3855 0.4131,-0.978109 0.7044,-2.277105 0.765,-3.407305 0.051,-0.9308 -0.1598,-1.8306 -0.5441,-2.3344 -0.3668,-0.4807 -0.992,-0.8434 -1.8142,-1.0512 -0.8718,-0.2204 -1.5903,-0.2664 -4.1854,-0.2667 l -1.9954,0 z"
             style="fill:#bab4e6;fill-opacity:1" />
    </g>
</svg>
