<?xml version="1.0" encoding="UTF-8" standalone="no"?>
<!DOCTYPE svg PUBLIC "-//W3C//DTD SVG 1.1//EN" "http://www.w3.org/Graphics/SVG/1.1/DTD/svg11.dtd">
<svg width="100%" height="100%" viewBox="0 0 669 226" version="1.1" xmlns="http://www.w3.org/2000/svg" xmlns:xlink="http://www.w3.org/1999/xlink" xml:space="preserve" xmlns:serif="http://www.serif.com/" style="fill:#bab4e6;fill-rule:evenodd;clip-rule:evenodd;stroke-linejoin:round;stroke-miterlimit:1.41421;">
    <path d="M252.94,112.65C252.94,95.89 231.94,80.01 199.79,70.17C207.21,37.38 203.91,11.29 189.38,2.94C185.855,0.96 181.862,-0.038 177.82,0.05L177.82,11.55C179.862,11.486 181.887,11.948 183.7,12.89C190.7,16.89 193.75,32.22 191.38,51.89C190.81,56.74 189.88,61.89 188.75,67.05C177.969,64.462 167.029,62.595 156,61.46C149.432,52.399 142.266,43.786 134.55,35.68C151.36,20.06 167.13,11.5 177.86,11.5L177.86,0C163.68,0 145.12,10.11 126.36,27.63C107.6,10.21 89,0.21 74.86,0.21L74.86,11.7C85.53,11.7 101.36,20.21 118.17,35.7C110.488,43.789 103.372,52.396 96.87,61.46C85.822,62.591 74.866,64.486 64.08,67.13C62.9,62 62,57 61.4,52.18C59,32.48 62,17.17 68.93,13.1C70.75,12.128 72.799,11.665 74.86,11.76L74.86,0.26C70.791,0.172 66.77,1.166 63.21,3.14C48.72,11.5 45.47,37.53 52.95,70.22C20.88,80.12 0,95.95 0,112.65C0,129.35 21,145.29 53.15,155.13C45.73,187.92 49,214 63.57,222.36C67.108,224.344 71.115,225.342 75.17,225.25C89.35,225.25 107.91,215.14 126.67,197.62C145.44,215 164,225 178.18,225C182.25,225.085 186.271,224.087 189.83,222.11C204.32,213.76 207.57,187.72 200.09,155.04C232.06,145.23 252.94,129.36 252.94,112.65ZM185.81,78.26C183.9,84.91 181.53,91.77 178.81,98.62C176.7,94.5 174.48,90.37 172.06,86.25C169.64,82.13 167.16,78.1 164.64,74.19C172,75.27 179.06,76.61 185.81,78.26ZM162.2,133.17C158.2,140.17 154.05,146.73 149.77,152.86C142.09,153.53 134.3,153.86 126.47,153.86C118.64,153.86 110.9,153.5 103.27,152.86C98.99,146.727 94.83,140.197 90.79,133.27C86.87,126.517 83.297,119.677 80.07,112.75C83.27,105.84 86.88,98.93 90.74,92.18C94.74,85.18 98.89,78.62 103.17,72.49C110.85,71.82 118.64,71.49 126.47,71.49C134.3,71.49 142.04,71.85 149.67,72.49C153.95,78.623 158.11,85.153 162.15,92.08C166.07,98.833 169.643,105.673 172.87,112.6C169.62,119.51 166.06,126.42 162.2,133.17ZM178.85,126.47C181.63,133.38 184.01,140.29 185.96,146.99C179.21,148.64 172.09,149.99 164.72,151.11C167.25,147.11 169.77,143.11 172.14,138.89C174.51,134.67 176.74,130.59 178.85,126.47ZM126.57,181.47C121.514,176.229 116.731,170.732 112.24,165C116.88,165.21 121.62,165.36 126.42,165.36C131.22,165.36 136.06,165.26 140.75,165C136.324,170.745 131.59,176.246 126.57,181.48L126.57,181.47ZM88.21,151.11C80.89,150 73.83,148.69 67.07,147C68.98,140.35 71.35,133.49 74.07,126.64C76.18,130.76 78.4,134.89 80.82,139.01C83.24,143.13 85.69,147.19 88.21,151.11ZM126.31,43.82C131.366,49.071 136.149,54.578 140.64,60.32C136,60.11 131.26,59.96 126.46,59.96C121.66,59.96 116.82,60.06 112.13,60.32C116.556,54.568 121.289,49.06 126.31,43.82ZM88.16,74.19C85.63,78.19 83.11,82.19 80.74,86.41C78.37,90.63 76.15,94.66 74,98.78C71.25,91.87 68.88,85 66.92,78.26C73.67,76.66 80.79,75.27 88.16,74.19ZM41.5,138.74C23.25,130.95 11.44,120.74 11.44,112.65C11.44,104.56 23.25,94.3 41.5,86.56C45.93,84.65 50.78,82.95 55.78,81.35C58.934,92.066 62.809,102.557 67.38,112.75C62.86,122.894 59.038,133.335 55.94,144C50.83,142.4 46,140.65 41.5,138.74ZM69.24,212.41C62.24,208.41 59.19,193.08 61.56,173.41C62.13,168.56 63.06,163.41 64.19,158.25C74.967,160.848 85.904,162.725 96.93,163.87C103.498,172.931 110.664,181.544 118.38,189.65C101.57,205.27 85.8,213.83 75.07,213.83C73.039,213.845 71.036,213.357 69.24,212.41ZM191.53,173.12C193.95,192.81 190.96,208.12 184,212.2C182.18,213.172 180.131,213.635 178.07,213.54C167.4,213.54 151.57,205.03 134.76,189.54C142.437,181.461 149.551,172.864 156.05,163.81C167.098,162.679 178.054,160.784 188.84,158.14C190,163.086 190.898,168.089 191.53,173.13L191.53,173.12ZM211.38,138.73C206.95,140.64 202.1,142.34 197.1,143.94C193.946,133.224 190.071,122.733 185.5,112.54C190.023,102.399 193.848,91.962 196.95,81.3C202.05,82.9 206.95,84.65 211.44,86.56C229.69,94.35 241.5,104.56 241.5,112.65C241.5,120.74 229.63,131 211.38,138.74L211.38,138.73Z" style="fill-rule:nonzero;"/>
    <g transform="matrix(1,0,0,1,0,-0.0220622)">
        <circle cx="126.42" cy="112.65" r="23.56"/>
    </g>
    <g transform="matrix(1.44944,0,0,1.44944,-119.395,-46.9698)">
        <text x="266.404px" y="145.025px" style="font-family:'ArialMT', 'Arial', sans-serif;font-size:99.176px;">Native</text>
    </g>
</svg>
