<?xml version="1.0" encoding="UTF-8" standalone="no"?>
<svg
     xmlns:dc="http://purl.org/dc/elements/1.1/"
     xmlns:cc="http://creativecommons.org/ns#"
     xmlns:rdf="http://www.w3.org/1999/02/22-rdf-syntax-ns#"
     xmlns:svg="http://www.w3.org/2000/svg"
     xmlns="http://www.w3.org/2000/svg"
     version="1.1"
     id="svg9093"
     viewBox="0 0 161.99999 55.999997"
     height="15.804443mm"
     width="45.719994mm">
    <defs
         id="defs9095" />
    <metadata
         id="metadata9098">
        <rdf:RDF>
            <cc:Work
                 rdf:about="">
                <dc:format>image/svg+xml</dc:format>
                <dc:type
                     rdf:resource="http://purl.org/dc/dcmitype/StillImage" />
                <dc:title></dc:title>
            </cc:Work>
        </rdf:RDF>
    </metadata>
    <g
         transform="translate(-297,-128.3622)"
         id="layer1">
        <path
             id="path9749"
             d="m 337.80476,136.7606 c -2.9341,0.3945 -5.8674,0.78831 -8.9493,1.2031 0.8403,0.36691 1.4868,0.64031 2.3262,0.42381 2.0654,-0.5328 4.1611,-0.9493 6.2442,-1.414 0.1349,-0.03 0.2676,-0.074 0.4003,-0.1114 l -0.021,-0.10151 z m 5.1191,0.21481 -9.2852,2.05859 -0.016,0.1035 11.1406,3.084 c -0.6389,-1.8207 -1.2304,-3.50969 -1.8398,-5.24609 z m -15.8164,1.64849 c -0.1214,-0.042 -0.3119,0.042 -0.4434,0.1152 -2.0727,1.1578 -4.1846,2.25491 -6.1914,3.5176 -1.004,0.6319 -1.8219,1.56221 -2.71095,2.373 -1.4329,1.30781 -2.8653,2.61871 -4.27735,3.94921 -0.3746,0.35309 -0.7159,0.7568 -1.0078,1.1817 -0.9656,1.40619 -1.901,2.8319 -2.8808,4.2988 0.5475,0.56619 1.0454,1.1087 1.5781,1.61329 0.115,0.10881 0.4015,0.17141 0.5352,0.10551 2.3571,-1.15851 4.72945,-2.29121 7.0351,-3.545 0.752,-0.4086 1.3308,-1.1402 1.9785,-1.7343 2.1451,-1.9672 4.2851,-3.9386 6.4258,-5.91021 0.1309,-0.12099 0.287,-0.238 0.3652,-0.3906 0.7689,-1.50279 1.5243,-3.01439 2.3067,-4.5684 -0.9329,-0.3507 -1.8174,-0.69369 -2.7129,-1.00579 z m 4.125,1.0742 c -0.093,0.018 -0.1739,0.082 -0.2461,0.23041 -0.6944,1.4225 -1.4097,2.83479 -2.1152,4.25199 -0.022,0.044 -0.016,0.099 -0.033,0.20901 4.257,-0.64501 8.485,-1.2851 12.7129,-1.92581 l 0.01,-0.09 -0.01,0 c -1.3669,-0.3621 -2.7341,-0.7244 -4.1016,-1.084 -1.9657,-0.51681 -3.9319,-1.0274 -5.8964,-1.5489 -0.1228,-0.033 -0.2292,-0.061 -0.3223,-0.043 z m 78.1797,0.53321 0,27.1465 4.0664,0 0.8887,-2.1465 0.3652,0 c 1.303,1.66379 3.1005,2.49609 5.3906,2.49609 2.3153,0 4.1451,-0.88329 5.4883,-2.6524 1.342,-1.7668 2.0156,-4.2613 2.0156,-7.4824 0,-3.12949 -0.6532,-5.5921 -1.9551,-7.38869 -1.3042,-1.79661 -3.1074,-2.69721 -5.4101,-2.69721 -2.4413,0 -4.2858,0.96781 -5.5293,2.8984 l -0.2109,0 c 0.1397,-1.7691 0.2109,-3.05469 0.2109,-3.8574 l 0,-6.31639 -5.3203,0 z m -46.6543,1.6406 0,25.50779 5.4082,0 0,-9.78709 2.8769,0 6.0879,9.78709 6.002,0 -7.502,-11.11329 c 1.5127,-0.66301 2.6822,-1.5809 3.5078,-2.75 0.8267,-1.168 1.2403,-2.5027 1.2403,-4.0039 0,-2.5695 -0.8324,-4.485 -2.4961,-5.748 -1.6638,-1.2619 -4.2284,-1.8926 -7.6934,-1.8926 l -7.4316,0 z m -18.0371,1.14839 c -0.7418,1.1142 -1.4875,2.227 -2.2285,3.34181 -2.5456,3.8298 -5.0896,7.66049 -7.6329,11.49219 -0.1416,0.2134 -0.3264,0.38201 -0.1269,0.71101 2.4575,4.0579 4.8955,8.129 7.3398,12.19529 0.3856,0.6422 0.7767,1.28221 1.2754,1.8984 0.4942,-9.8691 0.9866,-19.74019 1.4805,-29.60939 l -0.1074,-0.029 z m -1.4395,0.047 c -4.7719,0.79741 -9.4304,1.5751 -14.1484,2.36331 1.607,3.90899 3.1812,7.74039 4.8008,11.67969 3.1333,-4.7085 6.2059,-9.3232 9.3476,-14.043 z m -15.2031,2.2695 c -2.7024,2.47061 -5.3657,4.9056 -8.0938,7.40041 4.297,1.39479 8.5099,2.76089 12.8438,4.168 -1.6095,-3.92091 -3.1636,-7.7045 -4.75,-11.5684 z m 40.0879,0.9668 1.6406,0 c 1.7451,0 3.0319,0.2577 3.8633,0.7696 0.8312,0.5118 1.248,1.3717 1.248,2.582 0,1.22061 -0.4077,2.1154 -1.2207,2.6856 -0.8141,0.5691 -2.0767,0.8554 -3.7851,0.8554 l -1.7461,0 0,-6.8926 z m 17.6543,1.5704 0,12.71871 c 0,2.30269 0.5807,4.0674 1.7441,5.29489 1.1645,1.22751 2.8913,1.8399 5.1836,1.8399 1.3363,0 2.5284,-0.2457 3.5762,-0.74029 1.0453,-0.49471 1.8556,-1.1934 2.4258,-2.10151 l 0.2793,0 0.7148,2.4941 0,0 4.082,0 0,-19.5059 -5.3222,0 0,9.1777 c 0,2.3027 -0.3312,3.95031 -0.9942,4.9454 -0.663,0.99281 -1.7388,1.49021 -3.2285,1.49021 -1.0936,0 -1.8895,-0.35051 -2.3887,-1.0547 -0.5016,-0.7042 -0.75,-1.76071 -0.75,-3.168 l 0,-11.39251 -5.3222,0 z m 43.0625,0 7.7441,19.36521 -0.3125,0.96089 c -0.395,1.1634 -0.9462,2.03271 -1.6504,2.60751 -0.7042,0.57599 -1.5275,0.8632 -2.4687,0.8632 -0.7569,0 -1.4529,-0.076 -2.0918,-0.2265 l 0,4.2226 c 0.8828,0.19849 1.7836,0.29689 2.7031,0.29689 1.8733,0 3.5094,-0.5053 4.9121,-1.51759 1.4016,-1.0122 2.4794,-2.53551 3.2363,-4.57031 l 8.252,-22.0019 -5.7051,0 -3.6113,10.97461 c -0.3722,1.05809 -0.6229,2.18699 -0.75,3.38469 l -0.1055,0 c -0.1155,-1.303 -0.3296,-2.4308 -0.6445,-3.38469 l -3.6816,-10.97461 -5.8262,0 z m -10.3301,3.89061 c 1.129,0 2.0195,0.4798 2.6699,1.4394 0.6504,0.9596 0.9766,2.40119 0.9766,4.3203 0,1.9191 -0.323,3.38139 -0.9688,4.3868 -0.647,1.0053 -1.5139,1.5097 -2.6074,1.5097 -1.3489,0 -2.3361,-0.45441 -2.959,-1.36131 -0.6217,-0.90799 -0.9316,-2.4076 -0.9316,-4.50189 l 0,-0.5743 c 0.023,-1.86191 0.3387,-3.1963 0.9434,-4.00581 0.6045,-0.8084 1.5635,-1.21289 2.8769,-1.21289 z m -99.8086,1.8144 c -2.34095,1.2167 -4.5751,2.3778 -6.8691,3.5703 1.1708,3.0429 2.4197,6.2524 3.64245,9.41219 l 0.1055,-0.023 c 1.0279,-4.2738 2.0717,-8.5182 3.12115,-12.959 z m 1.0449,0.16999 c -1.1725,4.95371 -2.33845,9.88101 -3.54295,14.96871 5.64785,-3.63921 11.16545,-7.1952 16.64645,-10.72661 -4.3617,-1.4117 -8.7092,-2.81969 -13.1035,-4.2421 z m -10.7539,1.44141 c -0.76,3.7523 -1.5004,7.4131 -2.2422,11.07219 l 0.0821,0.039 c 0.057,-0.091 0.1258,-0.17761 0.1679,-0.27541 1.2247,-2.84179 2.4443,-5.68579 3.6739,-8.52539 0.1229,-0.28481 0.1136,-0.4777 -0.127,-0.707 -0.5145,-0.4896 -0.9925,-1.0186 -1.5547,-1.6035 z m 2.3164,3.37109 c -1.5239,3.6429 -2.9973,7.16161 -4.4961,10.74411 2.8805,-0.085 5.6725,-0.1687 8.56055,-0.2539 -1.35585,-3.4985 -2.68365,-6.927 -4.06445,-10.49021 z m 22.4961,0.2226 -16.62895,10.71681 c 8.42005,1.14959 16.69025,2.2786 25.12505,3.4297 -2.8738,-4.7842 -5.6739,-9.4466 -8.4961,-14.14651 z m -18.42585,11.4688 c -1.0461,-0.025 -2.10655,0.062 -3.15615,0.08 -1.1496,0.019 -2.2977,0.064 -3.4473,0.1 -0.1183,0 -0.2373,0.027 -0.3554,0.1542 9.50435,0.87861 19.0096,1.7575 28.5136,2.6368 l 0.02,-0.127 c -3.0466,-0.416 -6.0941,-0.83229 -9.1407,-1.248 -3.7965,-0.51839 -7.5865,-1.0888 -11.39255,-1.5274 -0.345,-0.04 -0.6924,-0.06 -1.0411,-0.068 z"
             style="fill:#bab4e6;fill-opacity:1" />
    </g>
</svg>
