<?xml version="1.0" encoding="utf-8"?>
<!-- Generator: Adobe Illustrator 21.1.0, SVG Export Plug-In . SVG Version: 6.00 Build 0)  -->
<svg version="1.1" id="Слой_1" xmlns="http://www.w3.org/2000/svg" xmlns:xlink="http://www.w3.org/1999/xlink" x="0px" y="0px"
	 viewBox="0 0 232.5 168.6" style="enable-background:new 0 0 232.5 168.6;" xml:space="preserve">
<style type="text/css">
	.st0{fill:#BAB4E6;}
	.st1{enable-background:new    ;}
</style>
<title>sql</title>
<path class="st0" d="M202.2,0H30.8C13.7,0,0.6,13.1,0.6,30.2v70.6c0,17.1,13.1,30.2,30.2,30.2h171.4c17.1,0,30.2-13.1,30.2-30.2
	V30.2C232.5,13.1,219.3,0,202.2,0z M222.4,100.8c0,11.1-9,20.1-20.2,20.2H30.8c-11.1,0-20.1-9-20.2-20.2V30.2
	c0-11.1,9-20.1,20.2-20.2h171.4c11.1,0,20.1,9,20.2,20.2V100.8z"/>
<g class="st1">
	<g>
		<path class="st0" d="M55.3,94.3c-4.4,0-8.5-0.5-12-1.4c-3.6-1-6.4-2.1-8.7-3.5L32.3,88l4.1-11.5l3.5,1.8
			c4.9,2.4,10.2,3.7,15.8,3.7c6.6,0,8-2.8,8-6.9c0-1.4-0.3-2.4-1-3.2c-0.3-0.4-1.4-1.3-4.8-2.2l-10.4-2.6c-12-3-14.5-10.4-14.5-16.1
			c0-6.1,2.2-10.8,6.5-13.9c4-2.8,9.4-4.2,16-4.2c3.4,0,6.6,0.4,9.7,1.2c3.1,0.8,5.8,1.9,7.9,3.2l2.4,1.5l-4.2,11.3L68,48.2
			c-1.4-0.7-3.2-1.4-5.5-2c-2.3-0.6-4.6-0.9-6.9-0.9c-9.3,0-9.3,3.7-9.3,5.5c0,1.4,0.5,2,0.9,2.4c0.6,0.6,1.8,1.3,4.3,2l9.8,2.3
			c2.3,0.5,4.3,1.2,6,2c1.9,0.9,3.5,2,5,3.3c1.5,1.5,2.7,3.2,3.5,5.3c0.7,2,1.1,4.2,1.1,6.7c0,6.4-2.1,11.3-6.1,14.7
			C66.9,92.7,61.7,94.3,55.3,94.3z"/>
	</g>
	<g>
		<path class="st0" d="M136.1,111.5l-2.5-2.5c-1.3-1.3-3.2-3.6-5.9-7.2c-2.1-2.7-3.7-5.2-5.1-7.5c-0.7,0-1.3,0-2,0
			c-3.7,0-7.1-0.5-10.2-1.5c-3.2-1-6-2.5-8.3-4.3c-2.3-1.8-4.3-4.1-5.9-6.6c-1.6-2.5-2.8-5.4-3.6-8.5c-0.8-3-1.1-6.2-1.1-9.6
			c0-6,1.1-11.3,3.4-15.9c2.3-4.7,5.7-8.4,10.2-11.1c4.4-2.6,9.7-3.9,15.6-3.9s11.2,1.3,15.6,3.9c4.5,2.7,7.9,6.4,10.2,11.1
			c2.2,4.6,3.3,9.9,3.3,15.9c0,4.2-0.6,8.2-1.9,11.9c-1.3,3.7-3.1,7-5.5,9.7c-1.9,2.2-4.2,4-6.9,5.5c0.7,1.1,1.6,2.4,2.6,3.7
			c2.8,3.5,3.9,4.8,4.4,5.2l2.6,2.4L136.1,111.5z M120.7,45.3c-5.1,0-8.9,1.5-11.4,4.6c-2.7,3.3-4.1,8-4.1,13.9c0,2.7,0.3,5.3,1,7.5
			c0.6,2.1,1.6,4.1,2.8,5.7c1.2,1.5,2.7,2.7,4.6,3.6c2,0.9,4.4,1.4,7.1,1.4c2.7,0,5.1-0.5,7.1-1.4c1.9-0.9,3.4-2,4.6-3.5
			c1.2-1.6,2.2-3.5,2.8-5.7c0.7-2.2,1-4.8,1-7.5c0-5.9-1.4-10.5-4.1-13.8C129.5,46.8,125.8,45.3,120.7,45.3z"/>
	</g>
	<g>
		<polygon class="st0" points="202.3,93.5 166.6,93.5 166.6,34 179.8,34 179.8,81.1 203.1,81.1 		"/>
	</g>
</g>
</svg>
