<?xml version="1.0" encoding="UTF-8" standalone="no"?>
<svg
     xmlns:dc="http://purl.org/dc/elements/1.1/"
     xmlns:cc="http://creativecommons.org/ns#"
     xmlns:rdf="http://www.w3.org/1999/02/22-rdf-syntax-ns#"
     xmlns:svg="http://www.w3.org/2000/svg"
     xmlns="http://www.w3.org/2000/svg"
     version="1.1"
     id="svg9093"
     viewBox="0 0 162 55.999997"
     height="15.804443mm"
     width="45.719997mm">
    <defs
         id="defs9095" />
    <metadata
         id="metadata9098">
        <rdf:RDF>
            <cc:Work
                 rdf:about="">
                <dc:format>image/svg+xml</dc:format>
                <dc:type
                     rdf:resource="http://purl.org/dc/dcmitype/StillImage" />
                <dc:title></dc:title>
            </cc:Work>
        </rdf:RDF>
    </metadata>
    <g
         transform="translate(-7,-128.3622)"
         id="layer1">
        <path
             id="path9751"
             d="m 24.235403,132.3104 -6.6094,0.045 28.1484,48.0586 28.0313,-48.10361 -11.1895,0 -16.8398,29.20711 -16.9707,-29.20711 -4.5703,0 z m 6.6172,0 14.9355,25.70121 14.8164,-25.70121 -10.3183,0 -4.5508,7.58011 -4.5664,-7.58011 -10.3164,0 z m 54.1386,9.2989 c -0.4144,0 -0.827,0.11841 -1.1855,0.35541 -0.3585,0.2369 -0.6875,0.6454 -0.6875,1.17 0,0.069 -0.039,0.2241 0.096,0.4941 l -0.035,-0.086 7.2051,23.3769 c 0.129,0.4385 0.4378,0.7726 0.7852,0.9649 0.3473,0.19229 0.7293,0.2656 1.0996,0.2656 0.7874,0 1.6532,-0.37561 1.9179,-1.2227 l 7.197307,-23.4648 0,-0.086 c 0,0.1183 0.035,0.051 0.035,-0.205 0,-0.5335 -0.3412,-0.9273 -0.7051,-1.1739 -0.364,-0.2465 -0.792502,-0.38671 -1.238302,-0.38671 -0.5497,0 -1.1806,0.33281 -1.3926,0.96881 l 0,0.01 -5.812505,19.3946 -5.832,-19.3594 c -0.086,-0.3459 -0.3187,-0.6357 -0.5898,-0.7969 -0.2711,-0.1612 -0.5685,-0.21481 -0.8536,-0.21481 l 0,0 z m 57.388707,1.20501 c -1.147,0 -2.1152,0.8792 -2.1152,1.9786 0,1.0994 0.9532,2.0078 2.1152,2.0078 1.14,0 2.0449,-0.9255 2.0449,-2.0078 0,-1.08241 -0.9206,-1.9786 -2.0449,-1.9786 z m -16.8945,7.48439 c -3.9211,0 -7.1485,3.13701 -7.1485,6.9082 l 0,3.8633 c 0,2.1121 0.8412,3.9239 2.2696,5.17381 1.4284,1.24989 3.4213,1.93949 5.707,1.93949 1.6884,0 3.0648,-0.3773 4.0488,-0.8906 0.4919,-0.2567 0.888,-0.5456 1.1797,-0.8594 0.2917,-0.3138 0.5059,-0.6566 0.5059,-1.086 0,-0.3943 -0.1509,-0.736 -0.3965,-1.0429 -0.2455,-0.3069 -0.6325,-0.5879 -1.1309,-0.5879 -0.36,0 -0.6373,0.1517 -0.8769,0.2988 -0.2396,0.147 -0.4635,0.309 -0.7344,0.4649 -0.5416,0.3118 -1.2598,0.6152 -2.5273,0.6152 -1.4111,0 -2.588,-0.4026 -3.3985,-1.0781 -0.8106,-0.6755 -1.2812,-1.6141 -1.2812,-2.8438 l 0,-0.7148 7.2324,0 c 0.7715,0 1.6292,-7e-4 2.3711,-0.4727 0.7418,-0.4736 1.1933,-1.4151 1.1933,-2.8476 0,-3.967 -3.3115,-6.8399 -7.0136,-6.8399 z m 27.1875,0 c -2.0842,0 -3.6169,0.6736 -4.6016,1.6875 -0.9846,1.01381 -1.4101,2.3339 -1.4101,3.56641 0,1.5708 0.6342,2.69629 1.5429,3.418 0.9088,0.72179 2.0395,1.08369 3.1153,1.40819 1.0758,0.3245 2.1054,0.61311 2.7968,1.03911 0.6914,0.4259 1.0625,0.8865 1.0625,1.8593 0,0.5222 -0.1571,0.9375 -0.582,1.2774 -0.4249,0.3399 -1.1789,0.6094 -2.4082,0.6094 -1.4541,0 -2.2658,-0.3589 -2.8574,-0.7247 -0.2958,-0.1829 -0.534,-0.3734 -0.7793,-0.5429 -0.2453,-0.1696 -0.5243,-0.3535 -0.9141,-0.3535 -0.4692,0 -0.8152,0.2884 -1.0254,0.5878 -0.2102,0.2994 -0.3301,0.6397 -0.3301,1.0079 0,0.4554 0.2211,0.8558 0.5352,1.2031 0.3141,0.3473 0.7387,0.6576 1.2598,0.9277 1.0423,0.54 2.4768,0.9141 4.1816,0.9141 1.8507,0 3.3739,-0.4517 4.4512,-1.3281 1.0772,-0.8765 1.664,-2.1794 1.664,-3.6817 0,-1.6969 -0.6164,-2.9162 -1.5253,-3.7226 -0.909,-0.8063 -2.0568,-1.2221 -3.1485,-1.55671 -1.0916,-0.33449 -2.1426,-0.59429 -2.8457,-0.96089 -0.7031,-0.3667 -1.0332,-0.7053 -1.0332,-1.4844 0,-0.4215 0.1672,-0.9528 0.5957,-1.3711 0.4286,-0.4183 1.1289,-0.7558 2.291,-0.7558 0.9285,0 1.6175,0.2116 2.17,0.4375 0.2763,0.1129 0.5163,0.2316 0.7441,0.33 0.2279,0.098 0.4383,0.1953 0.7402,0.1953 0.5452,0 0.9199,-0.3592 1.1426,-0.6933 0.2227,-0.334 0.3516,-0.6639 0.3516,-1.041 0,-0.4723 -0.294,-0.8075 -0.6192,-1.0586 -0.3252,-0.2511 -0.7345,-0.4501 -1.207,-0.6231 -0.9448,-0.3462 -2.1483,-0.5703 -3.3574,-0.5703 z m -49.2969,0.207 c -0.9117,0 -1.6992,0.57301 -1.6992,1.4239 l 0,9.209 c 0,3.7361 3.1763,7.04491 7.1152,7.04491 3.8726,0 7.1153,-3.2699 7.1152,-7.04491 l 0,-9.24219 c 0,-0.42591 -0.235,-0.79501 -0.5429,-1.02931 -0.3079,-0.23429 -0.6982,-0.35939 -1.1231,-0.35939 -0.4249,0 -0.8183,0.1242 -1.1328,0.35349 -0.3145,0.2293 -0.5664,0.5949 -0.5664,1.03521 l 0,9.24219 c 0,1.95841 -1.7069,3.8535 -3.75,3.8535 -2.077,0 -3.75,-1.92879 -3.75,-3.8535 l 0,-9.209 c 0,-0.4411 -0.2419,-0.7817 -0.541,-1.02349 -0.2992,-0.24191 -0.6886,-0.40031 -1.125,-0.40041 z m 39.0039,0 c -0.4262,0 -0.8209,0.1106 -1.1348,0.3477 -0.314,0.2372 -0.5293,0.6276 -0.5293,1.04301 l 0,16.9687 c 0,1.2733 -0.087,2.34179 -0.3671,2.98829 -0.2796,0.64661 -0.6101,0.9316 -1.5528,0.9316 -0.8329,0 -1.5293,0.72911 -1.5293,1.5997 0,0.36191 0.1181,0.75821 0.4141,1.06831 0.296,0.31009 0.7542,0.49219 1.2851,0.49219 1.7921,0 3.1634,-0.7949 3.9805,-2.0859 0.8171,-1.291 1.1348,-3.01749 1.1348,-4.9942 l 0,-16.96869 c 0,-0.44221 -0.2519,-0.82781 -0.5723,-1.05471 -0.3204,-0.22699 -0.7144,-0.336 -1.1289,-0.336 z m -16.9277,2.78131 c 2.2383,0 3.75,1.8725 3.75,3.78129 0,0.20781 -0.023,0.3442 -0.045,0.40621 -0.021,0.062 -0.02,0.055 -0.051,0.076 -0.062,0.041 -0.4068,0.1289 -1.0684,0.1289 l -6.3359,0 0,-0.7481 c 0,-1.9976 1.6689,-3.64449 3.75,-3.64449 z m 10.6914,10.5332 c -1.2226,0 -2.1504,1.0111 -2.1504,2.1816 0,1.1244 0.9139,2.14849 2.1504,2.14849 1.1712,0 2.1133,-0.9929 2.1133,-2.14849 0,-1.1993 -0.9577,-2.1816 -2.1133,-2.1816 z"
             style="text-indent:0;text-decoration:none;text-decoration-line:none;text-decoration-style:solid;text-decoration-color:#000000;text-transform:none;block-progression:tb;white-space:normal;isolation:auto;mix-blend-mode:normal;solid-color:#000000;fill:#86a3b1;fill-opacity:1;color-rendering:auto;image-rendering:auto;shape-rendering:auto" />
    </g>
</svg>
